<svg xmlns="http://www.w3.org/2000/svg" viewBox="11 1 26 14" width="240px" height="123px">
  <path fill="#c5cae9" d="M34 15v-4c0-5.5-4.5-10-10-10S14 5.5 14 11v4H34z"/>
  <path fill="#3f51b5" d="M31.119 4C29.302 2.152 26.78 1 24 1s-5.302 1.152-7.119 3H31.119z"/>
  <path fill="#3f51b5" d="M22 7H26V14H22z"/>
  <path fill="#000001" d="M24 8A1 1 0 1 0 24 10A1 1 0 1 0 24 8Z"/>
  <path fill="#ffff8d" d="M24.5 12A0.5 0.5 0 1 0 24.5 13A0.5 0.5 0 1 0 24.5 12Z"/>
  <path fill="#7986cb" d="M28 11A1 1 0 1 0 28 13A1 1 0 1 0 28 11Z"/>
  <path fill="#3f51b5" d="M34 11c0-.337-.018-.671-.051-1H30v4h4V11z"/>
  <path fill="#3f51b5" d="M21.06 14v-4H14.11c-.033.329-.051.663-.051 1v3H21.06z"/>
</svg>
